{"accessors":[{"bufferView":1,"componentType":5126,"count":959,"max":[0.9121959805488586,0.9621409773826599,3.2491838932037354],"min":[-0.9421799778938293,-0.9741029739379883,1.7439420223236084],"type":"VEC3","byteOffset":0},{"bufferView":1,"byteOffset":11508,"componentType":5126,"count":959,"max":[0.9983735084533691,0.9972474575042725,0.9991702437400818],"min":[-0.9994818568229675,-0.9940170049667358,-1],"type":"VEC3"},{"bufferView":2,"componentType":5126,"count":959,"max":[1,0.9999960064888,0.16853749752044678,1],"min":[-1,-0.999991774559021,-0.16703544557094574,1],"type":"VEC4","byteOffset":0},{"bufferView":0,"componentType":5125,"count":5220,"max":[958],"min":[0],"type":"SCALAR","byteOffset":0},{"bufferView":1,"byteOffset":23016,"componentType":5126,"count":231,"max":[0.14444200694561005,0.10861600190401077,5.043567180633545],"min":[-0.36743199825286865,-0.10861600190401077,2.9622280597686768],"type":"VEC3"},{"bufferView":1,"byteOffset":25788,"componentType":5126,"count":231,"max":[0.9999687671661377,0.999983549118042,0.5862138867378235],"min":[-0.9999146461486816,-0.9999762177467346,-0.6861569285392761],"type":"VEC3"},{"bufferView":2,"byteOffset":15344,"componentType":5126,"count":231,"max":[0.9998446106910706,0.9999985098838806,0.4802740216255188,1],"min":[-0.999904215335846,-0.9999149441719055,-0.42798250913619995,1],"type":"VEC4"},{"bufferView":0,"byteOffset":20880,"componentType":5125,"count":1200,"max":[230],"min":[0],"type":"SCALAR"},{"bufferView":1,"byteOffset":28560,"componentType":5126,"count":189,"max":[-0.30532100796699524,0.06922800093889236,5.198328971862793],"min":[-0.5431529879570007,-0.06724900007247925,5.0070271492004395],"type":"VEC3"},{"bufferView":1,"byteOffset":30828,"componentType":5126,"count":189,"max":[0.8290470242500305,0.9947042465209961,0.9969871044158936],"min":[-0.9868484735488892,-0.9995175004005432,-0.9346291422843933],"type":"VEC3"},{"bufferView":2,"byteOffset":19040,"componentType":5126,"count":189,"max":[0.9733376502990723,0.9886935949325562,0.9431295394897461,1],"min":[-0.7851290106773376,-0.9840459823608398,-0.8007673025131226,1],"type":"VEC4"},{"bufferView":0,"byteOffset":25680,"componentType":5125,"count":900,"max":[188],"min":[0],"type":"SCALAR"}],"asset":{"extras":{"author":"pizzaguyty (https://sketchfab.com/pizzaguyty)","license":"CC-BY-4.0 (http://creativecommons.org/licenses/by/4.0/)","source":"https://sketchfab.com/models/8e076ba031bb4969930dc8e49d35668d","title":"Cherry (Free Download)"},"generator":"Sketchfab-3.18.7","version":"2.0"},"bufferViews":[{"buffer":0,"byteLength":29280,"byteOffset":0,"name":"floatBufferViews","target":34963},{"buffer":0,"byteLength":33096,"byteOffset":29280,"byteStride":12,"name":"floatBufferViews","target":34962},{"buffer":0,"byteLength":22064,"byteOffset":62376,"byteStride":16,"name":"floatBufferViews","target":34962}],"buffers":[{"byteLength":84440,"uri":"data:application/octet-stream;base64,"}],"materials":[{"doubleSided":true,"emissiveFactor":[0,0,0],"name":"blinn1SG","pbrMetallicRoughness":{"baseColorFactor":[0.48,0,0.01,1],"metallicFactor":0,"roughnessFactor":0.9604821355},"alphaMode":"OPAQUE"},{"doubleSided":true,"emissiveFactor":[0,0,0],"name":"blinn2SG","pbrMetallicRoughness":{"baseColorFactor":[0.53,0.55,0.01,1],"metallicFactor":0,"roughnessFactor":1},"alphaMode":"OPAQUE"},{"doubleSided":true,"emissiveFactor":[0,0,0],"name":"lambert2SG","pbrMetallicRoughness":{"baseColorFactor":[0.39,0.22,0.02,1],"metallicFactor":0,"roughnessFactor":1},"alphaMode":"OPAQUE"}],"meshes":[{"primitives":[{"attributes":{"NORMAL":1,"POSITION":0,"TANGENT":2},"indices":3,"material":0,"mode":4}]},{"primitives":[{"attributes":{"NORMAL":5,"POSITION":4,"TANGENT":6},"indices":7,"material":1,"mode":4}]},{"primitives":[{"attributes":{"NORMAL":9,"POSITION":8,"TANGENT":10},"indices":11,"material":2,"mode":4}]}],"nodes":[{"children":[1],"name":"RootNode (gltf orientation matrix)","rotation":[-0.7071067811865475,0,0,0.7071067811865476],"translation":[0,0,0],"scale":[1,1,1]},{"children":[2],"name":"RootNode (model correction matrix)"},{"children":[3,4,5],"name":"cherry.obj.cleaner.materialmerger.gles"},{"mesh":0,"name":""},{"mesh":1,"name":""},{"mesh":2,"name":""}],"scene":0,"scenes":[{"name":"OSG_Scene","nodes":[0]}]}
